<?xml version="1.0" encoding="UTF-8" standalone="no"?>
<!DOCTYPE svg PUBLIC "-//W3C//DTD SVG 1.1//EN" "http://www.w3.org/Graphics/SVG/1.1/DTD/svg11.dtd">
<svg width="100%" height="100%" viewBox="0 0 402 476" version="1.1" xmlns="http://www.w3.org/2000/svg" xmlns:xlink="http://www.w3.org/1999/xlink" xml:space="preserve" xmlns:serif="http://www.serif.com/" style="fill-rule:evenodd;clip-rule:evenodd;">
    <g transform="matrix(1,0,0,1,-94.9579,-39.9579)">
        <path d="M381.263,411.865C358.843,421.24 294.683,434.366 217.397,411.865C168.481,401.753 106.114,336.046 142.801,277.348C172.15,230.389 177.857,188.485 177.042,173.403C178.02,73.615 258.975,46.223 299.33,45C395.204,50.87 422.433,133.047 424.064,173.403C422.841,256.559 450.967,235.77 463.196,309.142C472.979,367.841 412.65,402.081 381.263,411.865Z" style="fill:rgb(61,52,52);fill-rule:nonzero;stroke:black;stroke-width:2.45px;"/>
    </g>
    <g transform="matrix(1,0,0,1,-94.9579,-39.9579)">
        <path d="M192.886,419.758C132.266,436.079 106.518,487.382 100,510.427L491.097,510.427C467.631,454.212 423.47,427.314 403.1,419.758C359.917,414.091 253.506,403.438 192.886,419.758Z" style="fill:rgb(171,194,181);fill-rule:nonzero;stroke:black;stroke-width:2.45px;"/>
    </g>
    <g transform="matrix(1,0,0,1,-94.9579,-39.9579)">
        <path d="M260.197,398.413L265.089,310.365L329.902,305.474L338.462,398.413C347.267,398.413 385.339,413.087 403.275,420.425C293.215,466.894 192.939,422.871 195.385,420.425C197.341,418.468 239.408,404.935 260.197,398.413Z" style="fill:rgb(243,197,197);fill-rule:nonzero;stroke:black;stroke-width:2.45px;"/>
    </g>
    <g transform="matrix(1,0,0,1,-94.9579,-39.9579)">
        <path d="M328.679,300.582C302.852,313.789 284.918,323.503 278.541,320.358L333.57,358.058L328.679,300.582Z" style="fill:rgb(231,126,127);fill-rule:nonzero;"/>
    </g>
    <g transform="matrix(1,0,0,1,-94.9579,-39.9579)">
        <path d="M205.168,222.318C202.233,215.47 201.499,172.995 201.499,152.614C206.391,157.505 241.854,157.505 250.414,155.059C258.974,152.614 284.655,147.722 302.998,119.596C317.673,97.095 350.691,95.546 365.365,97.584C363.409,126.933 385.747,149.76 397.16,157.505C396.752,170.141 394.959,200.795 391.046,222.318C387.132,243.84 382.078,255.743 380.04,259.004C303.732,374.444 239.816,307.104 217.396,259.004C214.543,249.629 208.103,229.166 205.168,222.318Z" style="fill:rgb(246,196,197);fill-rule:nonzero;stroke:black;stroke-width:2.45px;"/>
    </g>
    <g transform="matrix(1,0,0,1,-94.9579,-39.9579)">
        <path d="M289.547,255.336C286.612,256.314 279.356,259.819 276.095,261.45C291.748,285.908 308.705,271.641 315.227,261.45L314.004,260.227C309.928,258.597 301.378,255.336 299.788,255.336C298.199,255.336 296.374,257.781 295.661,259.004C294.846,257.374 292.482,254.357 289.547,255.336Z" style="fill:rgb(231,126,127);fill-rule:nonzero;"/>
    </g>
    <g transform="matrix(1,0,0,1,-94.9579,-39.9579)">
        <path d="M272.426,259.004C279.356,264.304 298.351,271.722 318.896,259.004" style="fill:none;fill-rule:nonzero;stroke:black;stroke-width:2.45px;"/>
    </g>
    <g transform="matrix(1,0,0,1,-94.9579,-39.9579)">
        <path d="M177.042,251.667C161.389,227.209 179.487,212.127 190.493,207.643C195.792,211.664 206.635,221.695 207.614,229.655C208.539,237.186 207.455,237.814 206.695,237.123C209.371,239.897 211.374,243.128 212.505,245.553C207.206,257.781 192.694,276.125 177.042,251.667Z" style="fill:rgb(243,197,197);fill-rule:nonzero;"/>
    </g>
    <g transform="matrix(1,0,0,1,-94.9579,-39.9579)">
        <path d="M190.493,232.101C196.921,229.764 202.505,232.836 206.568,236.992M206.568,236.992C209.308,239.795 211.356,243.09 212.505,245.553C207.206,257.781 192.694,276.125 177.042,251.667C161.389,227.209 179.487,212.127 190.493,207.643C195.792,211.664 206.635,221.695 207.614,229.655C208.592,237.615 207.324,237.863 206.568,236.992Z" style="fill:none;fill-rule:nonzero;stroke:black;stroke-width:2.45px;"/>
    </g>
    <g transform="matrix(1,0,0,1,-94.9579,-39.9579)">
        <path d="M421.624,251.803C437.28,227.27 419.178,212.141 408.17,207.643C402.87,211.676 392.025,221.738 391.047,229.723C390.121,237.277 391.206,237.907 391.966,237.214C389.289,239.996 387.286,243.238 386.154,245.67C391.454,257.936 405.969,276.336 421.624,251.803Z" style="fill:rgb(243,197,197);fill-rule:nonzero;"/>
    </g>
    <g transform="matrix(1,0,0,1,-94.9579,-39.9579)">
        <path d="M408.17,232.177C401.741,229.832 396.156,232.914 392.092,237.083M392.092,237.083C389.352,239.894 387.304,243.2 386.154,245.67C391.454,257.936 405.969,276.336 421.624,251.803C437.28,227.27 419.178,212.141 408.17,207.643C402.87,211.676 392.025,221.738 391.047,229.723C390.068,237.708 391.336,237.957 392.092,237.083Z" style="fill:none;fill-rule:nonzero;stroke:black;stroke-width:2.45px;"/>
    </g>
    <g transform="matrix(1,0,0,1,-94.9579,-39.9579)">
        <circle cx="256.529" cy="210.089" r="9.783"/>
    </g>
    <g transform="matrix(1,0,0,1,-94.9579,-39.9579)">
        <circle cx="339.685" cy="210.089" r="9.783"/>
    </g>
    <g transform="matrix(1,0,0,1,-94.9579,-39.9579)">
        <path d="M291.992,229.655L290.208,237.685C289.869,239.212 291.031,240.661 292.596,240.661L300.553,240.661" style="fill:none;fill-rule:nonzero;stroke:black;stroke-width:2.45px;"/>
    </g>
    <g transform="matrix(1,0,0,1,-94.9579,-39.9579)">
        <path d="M330.831,166.538C347.194,164.117 359.178,171.581 363.126,175.616C365.709,180.458 362.767,180.996 360.973,180.659C360.614,180.323 358.389,179.651 352.361,179.651C346.333,179.651 331.908,178.306 325.449,177.633C320.425,174.944 314.469,168.959 330.831,166.538Z" style="fill-rule:nonzero;stroke:black;stroke-width:2.45px;"/>
    </g>
    <g transform="matrix(1,0,0,1,-94.9579,-39.9579)">
        <path d="M258.045,166.538C241.683,164.117 229.698,171.581 225.751,175.616C223.167,180.458 226.11,180.996 227.904,180.659C228.263,180.323 230.487,179.651 236.516,179.651C242.544,179.651 256.969,178.306 263.428,177.633C268.451,174.944 274.408,168.959 258.045,166.538Z" style="fill-rule:nonzero;stroke:black;stroke-width:2.45px;"/>
    </g>
    <g transform="matrix(1,0,0,1,-94.9579,-39.9579)">
        <path d="M284.655,211.312C288.732,208.866 299.819,205.442 311.559,211.312" style="fill:none;fill-rule:nonzero;stroke:rgb(245,227,227);stroke-width:4.89px;"/>
    </g>
    <g transform="matrix(1,0,0,1,-94.9579,-39.9579)">
        <circle cx="245.523" cy="211.312" r="37.909" style="fill:none;stroke:rgb(245,227,227);stroke-width:4.89px;"/>
    </g>
    <g transform="matrix(1,0,0,1,-94.9579,-39.9579)">
        <circle cx="350.691" cy="211.312" r="37.909" style="fill:none;stroke:rgb(245,227,227);stroke-width:4.89px;"/>
    </g>
</svg>
